<svg xmlns="http://www.w3.org/2000/svg" width="927.08" height="793.53" viewBox="0 0 927.08 793.53">
  <g id="Illustrations_coffee" data-name="Illustrations/coffee" transform="translate(-27.948 106.848) rotate(-7)">
    <path id="Accent" d="M286.328,459.927c4.916-3.35,14.968-15.343,20.235-18.114,11.712-6.163,63.885-18.278,65.582-18.993,2.584-1.09,19.368-4.9,29.148-7.305,22.963-5.652,105.254-42.154,126.944-51.514,2.769,7.286,25.628,39.451,21.707,42.747-12.911,10.852-36.053,24.365-51.008,32.142a254.263,254.263,0,0,1-37.842,15.745c-14.685,4.827-24.763,10-39.4,14.937-14.4,4.857,2.809,20.047,10.2,23.185,8.294,3.522,21.14,5.309,29.615,8.36-14.921,23.19-27.452,51.336-29.958,79.115-.6,6.685-5.7,12.814-13.989,10.812-4.277-1.033-43.744-6.289-50.18-7.757-42.962-9.8-120.087-61.1-100.226-113.716C271.711,471.673,282.1,462.81,286.328,459.927Z" transform="translate(-71.79 -45.922)" fill="#4C4CA7" fill-rule="evenodd"/>
    <g id="Ink" transform="translate(0)">
      <path id="ink-layer" d="M243.507,157.283c2.9-.253,10.412-6.238,6.472-9.266-3.974-3.054-6.83,7.182-6.472,9.266M92.248,180.239c.759-.139.428-4.425-.767-4.972-3.772-1.728-4.09,4.767-4.182,6.5-.115,2.193-.381,8.371,4.205,6.678,2.6-.961.988-6.567.745-8.21m222.675,20.024c-.1,3.826,7.388,11.183,10.18,6.77,2.349-3.708-9.988-14.386-10.18-6.77M50.1,113.975c2.17,5.713,12.9-2.073,13.3-6.263.819-8.582-13.414.553-13.3,6.263m89.544,24.63c5-.424,11.575-6.981,16.4-9.431,3.262-1.657,12.137-3.633,13.1-7.4.84-3.27-14.219,3.73-15.5,4.352-5.907,2.856-11.233,6.111-13.993,12.476M514.871,93.387a21.635,21.635,0,0,1,13.934-5.1c2.55.067,7.87,1.714,8.07-2.838.326-7.4-22.2,1.625-25.717,3.077q1.858,2.429,3.713,4.856m-248.532,288.4c-2.923-5.008-8.179-7.9-12.132-12.177,1.449,7.016-1.818,13.256-4.062,19.66l16.194-7.484M773.891,488.559C775.5,483,777.115,477.465,779,471.987c2.107-6.134,3.155-6.664-1.889-10.953L764.55,485.529a35.944,35.944,0,0,0,9.341,3.03M340.642,85.881c-5.542-6.447-31.518-6.852-28.3,7.377,1.122,4.968,7.508-.31,11.508-1.468,3.97-1.15,15.213-1.3,16.8-5.909m-.953,91.273c-.672-1.646-2.013-7.584-4-8.052-1.939-.456-9.593,5.772-11.031,6.723-7.176,4.745-14.171,9.85-21.164,14.88,2.678,0,5.109-.984,7.77-1,3.163-.029,5.431,1.312,8.514.548,6.625-1.642,14.315-9.218,19.914-13.094m7.18-147.1c.622-2.949,33.1,5.9,37,7.524,2.126.882,13.1,6.767,10.741-2.1-1.342-5.052-14.02-8.9-18.083-10.288-10.329-3.518-21.219-6.021-32.217-5.44-2.136.112-18.31,1.075-11.556,7.784,2.327,2.31,10.669,1.582,14.115,2.523m7.109,405.143a187.045,187.045,0,0,0,18.553,7.824c2.809,1.068,7.186,3.861,10.285,3.159,2.539-.576,3.352-4.565,4.686-7.235a113.279,113.279,0,0,1,17.917-25.7c-3.352-2.522-20.368,8.605-24.578,10.248s-8.191,3.3-12.317,5.266c-3.884,1.85-11.547,3.5-14.545,6.443M461.112,351.92c8.818-4.118,17.176-11.42,24.409-17.958,8.3-7.506,15.748-15.373,21.827-25.088-3.658.193-11.734,12.335-11.825-.885-.047-6.743,8.909-13.386,11.688-19.641-6.914-4.028-13.252,20.042-21.185,14.208-7.643-5.622,4.416-24.951,6.74-31.05-4.483-3.078-30.024,31.373-33.721,35.781-2.312,2.759-7.78,6.433-9.085,9.651-.777,1.917-.889,8-.513,9.759.782,3.685,4.744,8.1,6.508,11.531a53.319,53.319,0,0,1,5.156,13.69M825.665,476.126c-7.626-11.107.252-15.951,6.452-25.17a120.6,120.6,0,0,0,12.665-23.739c7.862-20.6,14.956-39.746,18.839-61.535-5.343,2.518-8.684,12.1-11.357,17.145-3.6,6.787-6.757,13.91-10.752,20.485-7.476,12.3-14.816,25.429-24.326,36.093-4.309,4.833-7.956,10.271-12.928,14.625-2.271,1.99-6.616,3.622-8.29,6.11-1.579,2.348.188,3.849-.413,6.655-.615,2.878-3.437,5.947-4.648,8.718-1.59,3.64-3.071,7.289-4.846,10.849a26.15,26.15,0,0,0-2.986,9.705c-.571,4.148,1.178,4.579-2.332,8.4l19.083,8.683q3.219,1.467,6.441,2.931l1.357-2.627c1.748-1.752,3.356-6.072,4.355-8.387,4.18-9.657,8.9-19.353,13.684-28.944M211.394,429.5c-18.062,49.071,45.409,90.389,84.48,99.527,5.412,1.265,10.693,2.921,16.08,4.281,5.874,1.481,11.089,1.187,16.952,1.807,4.664.492,6.887,4.211,11.283,5.237,7.345,1.712,6.9-3.984,7.422-10.087,2.23-25.878,15.028-50.846,28.573-72.438-6.187-2.284-12.318-4.777-18.426-7.278-5.227-2.141-13.23-8.159-18.849-8.478-4.155-.234-10.488,3.428-14.524,5.035a172.876,172.876,0,0,1-20.469,6.782c-12.25,3.192-25.882,7.543-38.559,7.872-3.655.1-13.68,1.852-16.309-.479-5.014-4.444,1.945-8.148,6.143-9.735,25.02-9.455,51.585-13.474,76.676-23.168,12.912-4.989,25.69-10.56,38.682-15.475,11.2-4.236,22.93-7.986,33.753-13.2a208.638,208.638,0,0,0,41.026-25.546c2.478-2.02,7.668-5.021,9.366-7.949,1.5-2.577,1.309-.007,1-3.132-.223-2.244-2.884-5.287-3.979-7.407a219.712,219.712,0,0,1-10.864-24.4c-19.744,8.739-38.527,20.633-57.98,29.972-19.58,9.4-41.666,16.032-62.613,21.321-8.915,2.251-19.164,2.963-27.341,7.411-3.474,1.889-6.908,4.076-10.629,5.169q-1.649,3.263-3.246,1.279a2.806,2.806,0,0,0-2.59-.98,35.551,35.551,0,0,0-6.725,2.359c-10.773,4.31-21.089,9.706-31.316,15.213-4.848,2.608-9.82,5.178-14.46,8.157a33.472,33.472,0,0,0-6.749,5.4c-2.44,2.63-1.859,4.791-5.806,2.921M617.83,138.143c4.565.077,8.725-2.475,13.485-2.333,7.485.223,13.41,6.212,17.754,11.987,8.6,11.427,6.4,25.211,2.086,38a74.839,74.839,0,0,1-8.447,17.328c-3.138,4.736-8.748,9.216-10.938,14.489-3.611,8.7,3.675,5,8.137,3.142a61.5,61.5,0,0,0,15.629-9.156c21.221-17.441,37.364-41.683,42.772-69.524,2.638-13.583,2.435-29.463-6.735-40.549-8.383-10.138-22.854-13.45-35.224-11.57-13.372,2.033-25.491,7.878-36.379,15.4-3.163,2.186-6.059,4.573-9.028,7.018-3.9,3.208-6.231,3.291-5.255,8.318.724,3.737,2.7,7.611,3.967,11.2,2.38,6.717,1.512,8.455,8.176,6.254m14.553,115.8-.924,1.629c6.367.313,12.3-5.483,17.722-8.312,7.047-3.677,13.3-8.694,19.481-13.759,10.89-8.935,21.923-19,30.029-30.733,18.173-26.293,34.68-59.628,29.72-92.964-5.344-35.928-35.8-49.758-68.245-45-14.623,2.143-27.679,8.88-40.766,15.72-6.6,3.448-12.164,7.921-18.207,12.251-3.136,2.248-6,2.54-6.2,6.47-.154,2.962,4.808,9.66,6.149,12.344,16.431-17.3,34.139-31.607,58.954-32.491,29.521-1.052,46.978,27.833,46.848,55.493-.127,27.126-11.465,53.219-29.538,72.715-8.213,8.86-16.045,15.969-26.131,22.435-5.028,3.223-8.736,6.117-14.358,8.257-3.976,1.515-3.562.717-4.576,4.515-.862,3.223.018,8.086.045,11.433M471.973,622.486a102.857,102.857,0,0,1-2.419,14.469c-.385,1.712-2.552,7.118-2.172,9.043.628,3.182-.208,1.136,2.494,2.8,2.818,1.733,6.1,1.629,9.184,2.155,1.9.325,8.882,3.714,10.056,3.179,2.052-.936,1.987-4.235,4.238-5.542,3.067-1.783,7.587-.256,10.481,1.139,7.736,3.723,13.051,11.43,20.535,15.651,13.293,7.491,29.066,11.638,43.895,13.349,8.034.927,16.255,2.554,24.189.611,6.251-1.531,14.376-1.39,17.774-8.311-30.2-8.57-76.291-19.058-88.231-54.82-6.491,6.073-17.338,2.8-25.182,1.964-8.63-.922-16.341-.708-24.233-4.767a38.3,38.3,0,0,0-.609,9.084M204.6,400.995c14.216.886,27.693-6.056,36.441-17.769a38.863,38.863,0,0,0,5.655-9.247q.422-1.3.84-2.6,2.036-3.587-1.781-3.385c-1.434-2.029-5.069-2.711-4.034-6.389.778-2.774,3.652-2.819,6.15-3.692a23.8,23.8,0,0,0-3.768-5.157c-4.627,4.295-13.024,12.725-16.275,2.858-1.562-4.737,1.187-9.265.506-13.834-.28-1.89-2.6-6.718-3.948-7.847-7.166-6.021-17.488-3.529-25.092.015-5.24,2.443-6.368,3.589-7.223,9.188-.868,5.694-1.674,11.385-2.637,17.062,3.145-1.691,3.717-5.344,5.768-7.974q1.152,2.165,2.307,4.331a2.561,2.561,0,0,1,3.03.1c1.518,2.407.563,5.978.1,8.5,5.06-.487,7.2,5.339,2.1,7.7-5.284,2.444-7.667-4.219-7.847-8.535-1.972,2.43-4,1.13-5.372,2.378s-1.914,3.85-2.4,6.7c-.8,4.682-2.858,11.437-.956,16.134,2.823,6.976,11.822,10.607,18.444,11.463m411.93-224.077c-4.7,6.75-12.723,15.587-14.4,23.742,5.181-3.137,16.135-18.233,18.957-6.208,1.62,6.9-6.688,15.128-8.73,21.811,8.17-2.774,13.99-11.462,19.088-18.167,6.5-8.549,13.137-19.819,14.8-30.69,1.342-8.8-4.572-17-13.358-17.858a40.668,40.668,0,0,0-13.512,1.369c-1.978.489-4.927,1.1-6.692,2.189-2.216,1.373-2.519,4.588-4.607,1.914q-4.159,8.091-8.319,16.179c2.76-1.033,8.391-5.419,11.407-4.966,4.4.664,5.31,7.265,5.369,10.684M176.11,44.869a127.5,127.5,0,0,0-36.9,7.113c-2.9,1-15.129,4.562-12.553,9.724,1.7,3.412,10.881-1.409,13.656-2.213,11.892-3.446,24.137-5.719,36.318-7.793,2.949-.5,12.954-.452,13.471-4.442.633-4.868-10.513-2.394-14-2.388M511.723,600.1a77.713,77.713,0,0,1-19.792-.318c-5.631-.711-11.365-3.09-16.967-3.09,0,6.188-.407,6.227,5.92,7.552,4.416.925,8.9,1.444,13.358,2.089,7.858,1.133,16.581,4.316,24.535,2.681-.193-1.074-.8-8.326-1.626-9.044-.464-.4-4.754.137-5.429.13M403.7,142.22c1.869,1.229,6.165,6.129,8.391,6.216-.794-5.673-6.928-15.55-13.972-12.045-1.726.86-5.352,5.14-3.711,7.029.875,1.01,7-1.192,9.292-1.2m-65.167,50.468q.1-1.483.208-2.966c-2.584,1.568-5.784,2.31-7.621,4.836l6.615,3.028q.4-2.449.8-4.9M542.077,343.3c12.211,4.413,23.406,10.307,32.4,20.311,7.769,8.651,11.421,23.894,13.317,35.234,4.693,28.061-4.363,54.071-10.334,80.915-3.029,13.618-7.551,26.722-11.786,39.988-3.7,11.584-6.867,23.715-11.97,34.73-4.327,9.34-9.855,18.547-13.661,28.236-2.048,5.215-5.368,23.107-13.143,17.488-2.121,5.724-2.637,5.237-.37,9.213,1.642,2.878,7.21,6.875,9.838,9.219,7,6.248,15.87,11.4,24.085,15.771,15.045,8.013,31.173,14.008,46.667,21.313,6.85,3.232,14.279,7.049,12.741,16.3A22.616,22.616,0,0,1,607.443,689.1c-6.364,3.239-15.468,5.74-22.471,6.755-4.154.6-5.107-1.181-8.494-1.8-3.769-.685-8.169.641-12.058.607-17.457-.157-32.742-4.69-46.85-15.136-5.041-3.734-12.462-13.861-19.06-13.86-3.372,0-2.661,2.115-5.627,3.355-3.661,1.53-9.969-1.358-13.568-2.037-7.667-1.444-15.464-2.911-20.57-9.726-5.52-7.365-3.558-16.488-1.186-24.667,2.674-9.22,7.173-18.573,9.085-27.932.466-2.277.895-6.52.422-8.836-.735-3.594-4.251-5.738-4.357-9.63-.032-1.184,1.609-2.745,1.9-3.967.633-2.684.535-5.467.8-8.2.466-4.872,1.542-9.539,2.285-14.354,1.688-10.956,5.017-20.729,8.24-31.284,3.126-10.245,6.1-17.869,12.148-26.74,3.129-4.594,13.6-20.962,8.486-25.672-7,14.183-15.179,25.244-25.887,36.535-8.19,8.637-16.2,20.246-26.449,26.4-11.27,6.763-25.043,10.741-37.489,14.318-5.919,1.7-10.831,5.471-17.213,6.168a61.8,61.8,0,0,1-20.729-1.727c-1.906-.447-7.406-3.471-9.131-3.278-2.542.285-6.2,4.96-8.987,5.818-6.789,2.09-11.426-1.9-16.575-5.591-5.589-4-7.28-5-13.729-5.482-7.9-.589-15.581-3.462-23.35-5.222-13.66-3.093-25.272-9.36-37.688-15.922C245.1,520.471,232.927,510.1,222.2,497.85c-15.77-18.01-37.734-67.915-11.971-85.388-15.166-2.125-29.056-8.96-30.905-26.673-.966-9.269.853-19.536,3.111-28.471,1.031-4.079,2.26-8.133,3.437-12.171a8.529,8.529,0,0,0,1.405-4.477q.816-3.151-2.354-3.138c-3.994-4.82-7-9.074-7.8-15.918-.254-2.169-.482-5.493,1.014-7.337a5.074,5.074,0,0,1,2.5-1.485q3.512.208,1.985-3.569c1.136-3.566-.55-6.345,3.734-7.834q2.059.451,4.1.988,2.606,1.227,3.393-1.771c4.035-1.63,2.174-4.039,7.657-1.942a23.721,23.721,0,0,1,8.892,6.116c3.031-2.008-3.863-14.419-4.092-18.378-.546-9.334,3.194-17.05,8.059-24.717,9.456-14.9,22.656-27.709,35.672-39.236,24.931-22.075,51.123-43.09,79.275-60.677-11.613-8.323-25.181-10.579-39-6.711-12.739,3.566-23.065,10.042-34.792,15.709-10.863,5.246-22.395,7.4-25.858-6.916-3.881-16.038,8.5-21.992,19.607-29.184-2.773-2.134-11.9-.608-15.356-.356-7.691.561-15.047,2.353-22.521,3.938-3.585.759-6.878.588-10.429,1.332-5.279,1.106-10.792,2.344-16.133,3.92a126.194,126.194,0,0,0-36.3,17.111c-9.491,6.626-16.075,15.981-23.722,24.6-8.72,9.824-17.076,19.491-30,23.087-6.053,1.685-13.155,3.213-17.447-2.366-3.993-5.188-4.216-11.441-4.085-17.785.288-14.013,6.849-29.154,14.479-40.6C96.028,135.116,107.122,128,117.6,117.993c-15.15,1.118-29.792,9.358-43.725,15.055-2.932,1.2-5.892,2.547-8.84,3.656-3.144,1.184-5.226.459-8.238,1-6.874,1.238-12.778,4.227-19.463-.539-12.649-9.015.024-27.355,8.733-32.983A238.865,238.865,0,0,1,83.906,84.156c-7.235-8.1-1.056-19.655,5.613-25.4,8.438-7.269,19.182-11.435,29.348-15.326,8.041-3.078,15.938-6.033,24.29-7.885,8.781-1.946,19.048-4.92,27.958-4.635,8.356.268,15.766-1.252,24.228-1.495,7.042-.2,14.1-.027,21.14-.216,18.943-.505,37.956.813,56.47,2.219C258.286-12.845,354.905.824,375.519,6.606c18.733,5.255,40.2,11.35,55.932,23.819a191,191,0,0,1,18.912,17.446c8.726,9.09,13.556,20.995,18.172,32.745,11.707-5.918,22.9-12.367,35.71-15.3,12.189-2.791,24.674-6.575,36.934-8.683,9.321-1.6,22.851-2.692,30.7,4.1,8.52,7.377,12.959,18.857,18.045,28.689,24.425-23.916,51.668-41.363,86.492-40.2,34.076,1.136,56.484,31.5,60.616,64.408,4.551,36.26-11.1,74.147-32.318,102.226C695.2,228.443,685.352,240.6,672.547,250c-6.35,4.657-13.049,9.758-20.011,13.395a105.264,105.264,0,0,1-10.913,4.845,44.418,44.418,0,0,1-5.05,1.689c-4.885,1.223-3.936-.41-5.753,4-1.474,3.583-1.293,9.748-1.924,13.68-.721,4.494-1.15,9.051-2.2,13.484-1.825,7.684-3.725,15.18-6.01,22.684a219.762,219.762,0,0,1-17.28,41.47c6.048,2.711,14.518,2.984,20.981,3.806a141.979,141.979,0,0,1,21.267,4.852c14.56,4.2,27.57,7.747,41.415,14.036,14.374,6.529,27.184,16.279,41.025,24.039,12.727,7.136,25.592,16.073,37.412,24.639a36.893,36.893,0,0,1,6.792,6.391,37.247,37.247,0,0,0,5.756,5.437c1.235,1.029,4.823,6.224,6.232,6.415,2.523.345,2.136-1.6,4.116-4.311,4.136-5.664,9.905-10.052,14.012-15.86a170.892,170.892,0,0,1,10.66-13.912,166.791,166.791,0,0,0,22.5-33.33c3.279-6.29,6.731-12.276,10.292-18.212,3.545-5.91,9.846-13.71,16.906-13.361-.568-3.009-2.371-3.51.741-5.351,2-1.186,5.906.725,7.451,1.929,4.089,3.189,4.27,9.374,4.012,14.021a152.717,152.717,0,0,1-6.477,35.116c-4.068,13.611-9.166,25.618-14.73,38.609-4.43,10.348-9.93,24.033-20.953,28.755,7.4,10.908,3.848,19.8-1.1,31.375-3.616,8.466-8.392,17.213-15.667,22.815-8.2,6.315-17.094.957-25.671-3.215-5.18-2.522-21.021-8.473-17.8-16.232-3.957-.545-6.446-3.511-10.048-4.424-3.813-.966-3.158.631-7.192,1.231-3.094.459-7.721-2.4-10.633-3.423-4.866-1.707-9.717-3.459-14.575-5.185-13.674-4.861-27.119-9.646-40.929-13.54-25.694-7.245-51.706-11.355-77.31-17.824-5.133-1.3-10.236-2.548-15.58-3.587-1.1-.214-6.829-.544-7.524-1.763-1.219-2.136,2.527-14.09,2.848-16.525a160.41,160.41,0,0,0-1.552-49.307c-1.235-6.572-6.749-15.082-6.7-21.5.033-4.3,3.728-9,5.9-12.9,5.367-9.638,10.99-20.053,14.966-30.083,6.086-15.345,9.815-32.666,12.5-49.1,1.4-8.568,3.029-17.855,3.41-26.523.292-6.607-.234-13.536.7-20.3-3.544.347-8.557,2.241-11.748.213-4.03-2.559-5.113-9.866-4.6-14.229-13.8,2.486-13.341-11.019-12.487-21.579-24.94,0,7-38.243,10.99-46.455,1.834-3.776,1.779.465.97-5.374-.355-2.567-2.056-5.412-3.018-7.772q-3.144-7.728-6.782-15.224a292.209,292.209,0,0,0-17.229-30.594,102,102,0,0,0-15.573,14.134c3.048-8.228,12.364-18.421,8.379-27.763-3.692-8.66-16.026-8.06-23.309-6.477-19.792,4.306-38.774,10.578-57.629,17.839,5.84,3.456,14.782.786,20.586-1.856,7.186-3.273,14.913-6.707,22.658-8.441,6.754-1.512,15.625-1,13.673,8.391-1.582,7.607-8.792,14.932-13.549,20.62-10.482,12.531-23.625,22.231-36.534,31.923-13.877,10.419-27.249,21.739-41.3,31.857-25.4,18.29-52.717,34.185-78.963,51.257C361.752,228.287,346.3,235.425,331.506,242c-16.27,7.232-31.87,14.975-48.75,20.688-9.375,3.173-18.666,5.784-27.878,9.395-5.774,2.262-15.828,6.795-19.644.078-7.747-13.642,20.29-31.583,27.974-39.924,5.3,5.312-20.838,25.107-18.792,32.842,1.607,6.078,7.825-1.77,10.827-3.427,4.852-2.678,10.6-4.023,15.474-7.079,10-6.266,21.859-13.492,24.143-26.445q-2.383-2.6.06-4.792a11.127,11.127,0,0,0,1.724-2.932,45.384,45.384,0,0,0,1.378-6.743c1.126-6.379-1.7-12.352.941-18.595-15.414,12.052-30.23,25.666-44.862,38.712-13.124,11.7-26.819,27.027-31.642,44.489-.617,2.237-1.644,4.776-1.532,7.137.219,4.636.668,3.636,4.287,5.126s8.891,1.362,12.783,1.521c2.219.089,12.128-2.336,10.158,2.689-1.135,2.9-8,2.788-10.464,3.055-6.173.672-9.52-.018-6.6,6.887,1.311,3.095,3.967,5.191,6.05,7.586,5.8,6.664,8.948,16.884,13.509,24.713a297.076,297.076,0,0,0,16.978,25.707c2.5,3.427,5.852,9.869,9.324,12.314,3.242,2.284-.573,2.095,4.813,1.167,2.347-.4,4.474-1.979,6.72-2.543,13.425-3.375,27.224-7.179,41.108-11.345,17.758-5.328,36.394-9.872,53.337-17.546,15.178-6.876,30.243-15.062,45.58-22.025,4.479-2.032,8.953-3.38,12.433-7.12,4.2-4.514,7.681-10.424,11.556-15.276,6.591-8.254,12.666-16.649,19.76-24.471,5.281-5.82,14.64-16.64,22.09-18.963,14.157-4.413,6.579,17.838,4.749,23.462,3.328.78,5.077-3.625,8.983-2.358,4.676,1.518,5.16,7.935,5.745,11.956.155,1.071-1.25,3.074-.823,4.029.146.325,3.2,2.187,3.786,3.05,2.137,3.135,1.717,6.947.907,10.328-4.19,17.512-19.08,30.3-30.032,43.217,4.9-.956,8.531-3.838,13.156-5.266,4.341-1.34,8.7-1.27,13.08-1.654,4.581-.4,8.981-2.172,13.668-2.261,4.918-.094,9.627,1.351,14.5,1.924" transform="translate(1.693 0)" fill-rule="evenodd"/>
      <path id="ink-layer-2" data-name="ink-layer" d="M24.516,190.746c-2.985,1.951-3.826,3.865-3.929,8.366-.041,1.846.086,8.733,2.666,8.473,2.421-.243,1.263-14.471,1.263-16.839M9.1,201.963c1.391-14.426,6.669-29.094,19.085-38.083,3.071-2.223,6.544-2.144,9.909-3.546,2.022-.842,5.218-4.759,7.514-4.3,8.452,1.71-1.313,12.94-2.743,15.895-4.431,9.153-4.132,17.2-4,27.069.1,7.5,1.66,20.155-2.123,26.947-4.033,7.232-12.78,2.535-17.662-1.745-6.162-5.4-10.816-14.01-9.98-22.242" transform="translate(0.476 -3.846)" fill-rule="evenodd"/>
      <path id="ink-layer-3" data-name="ink-layer" d="M150.275,242.531c0,8.049,6.533,2.6,6.3-3.126-.342-8.43-6.606-3.239-6.3,3.126m34.735-44.5c-7.15,6.431-12.667,10.039-14.045,19.928-1.043,7.49-.006,14.909.038,22.454.075,12.648-10.138,25.945-21.129,11.446-8.017-10.574-5.141-27.2,1.4-37.83a44.973,44.973,0,0,1,13.985-14.566c4.255-2.615,16.224-7.761,19.755-1.433" transform="translate(7.672 -4.574)" fill-rule="evenodd"/>
      <path id="ink-layer-4" data-name="ink-layer" d="M89.218,385.275c-.829,1.962-2.775,9.97,1.2,8.159,3.506-1.6,1.235-6.909-1.2-8.159M68.236,360.55c-.613-3.011-.363-21.89,4.837-20.474,4.084,1.11,4.759,10.773,6.423,14.136,6.2,12.524,20.418,20.323,25.323,33.25,5.474,14.435-11.077,14.884-19.859,9.038-10.4-6.922-16.415-23.871-16.724-35.951" transform="translate(3.598 -7.855)" fill-rule="evenodd"/>
      <path id="ink-layer-5" data-name="ink-layer" d="M56.6,288.064c2.257-3.047,2.485-4.675,1.2-7.37-1.644,1.789-1.352,4.345-1.2,7.37m1.633,13.63c-11.765,1.317-12.354-20.363-10.339-27.807a55.291,55.291,0,0,1,8.6-17.13c.717-.975,7.519-9.734,8.853-9.755,5.117-.081,3.71,5.7,3.159,7.853a59.565,59.565,0,0,0-1.959,19.965c.5,8.044,4.311,27.142-8.318,26.875" transform="translate(2.487 -5.564)" fill-rule="evenodd"/>
      <path id="ink-layer-6" data-name="ink-layer" d="M569.921,120.651c-16.822,14.108-32.793,29.382-51.085,41.722-8.951,6.04-18.308,11.382-27.24,17.519a93.386,93.386,0,0,1-14.236,8.222c-4.458,2.03-7.372,2.294-3.674-2.524,2.472-3.219,8.014-5.461,11.382-7.749,5.182-3.524,10.077-7.433,15.529-10.559,9.611-5.514,19.164-9.966,28.023-16.728,7.864-6,15.977-11.859,23.482-18.236,3.219-2.734,13.89-15.289,17.818-11.667" transform="translate(-25.877 -2.9)" fill-rule="evenodd"/>
      <path id="ink-layer-7" data-name="ink-layer" d="M567.615,169c7.565,6.471-11.363,24.2-15.68,28.218A185.667,185.667,0,0,1,537.42,208.99c-1.743,1.322-11.25,10.17-13.664,9.456-4.761-1.41,1.49-7.15,3.116-8.647,5.257-4.848,10.627-9.552,15.767-14.53,4.636-4.485,9.656-8.639,14.14-13.27,3.631-3.752,6.683-10.108,10.837-13" transform="translate(-25.523 -3.71)" fill-rule="evenodd"/>
      <path id="ink-layer-8" data-name="ink-layer" d="M33.581,417.59c-1.975-4.577-5.513.5-3.719,2.79,1.7,2.164,3.467-1.911,3.719-2.79M22,408.552c1.059-6.73,3.506-10.47,9.82-4.725,4.339,3.947,13.064,15.172,12.236,21.292-1.087,8.026-9.927,5.749-14.51,1.552-4.7-4.3-6.771-12.151-7.546-18.118" transform="translate(1.164 -7.965)" fill-rule="evenodd"/>
      <path id="ink-layer-9" data-name="ink-layer" d="M36.153,535.3c-7.734-.589-14.333-6.527-17.618-13.486-2.764-5.852-5.379-15.285,4.33-12.21,6.328,2.006,30.721,26.639,13.288,25.7" transform="translate(0.847 -9.947)" fill-rule="evenodd"/>
      <path id="ink-layer-10" data-name="ink-layer" d="M125.231,499c-5.977,1.361-11.889-2.575-15.565-7.015-2.287-2.765-7.609-12.457-4.928-16.447,3.738-5.565,9.381,5.62,11.328,7.835,3.053,3.467,13.039,10.1,9.165,15.626" transform="translate(5.503 -9.213)" fill-rule="evenodd"/>
      <path id="ink-layer-11" data-name="ink-layer" d="M129.874,355.164c-4.685-2.174-9.035-4.792-10.92-9.985-1.2-3.307-2.2-13.225,3.117-13.179,6.155.055,20.25,22.171,7.8,23.164" transform="translate(6.244 -6.383)" fill-rule="evenodd"/>
      <path id="ink-layer-12" data-name="ink-layer" d="M98.295,256c6.273-.114,7.759,3.346,8.631,8.317.593,3.374,3.466,14.826.482,17.172-4.264,3.352-11.048-4.329-12.419-7.344C92.162,267.94,96.07,261.834,98.295,256" transform="translate(4.974 -5.003)" fill-rule="evenodd"/>
      <path id="ink-layer-13" data-name="ink-layer" d="M201.223,582.3c3.054,1.39,10,4.472,7.348,9.254-2.777,5-10.748.141-13.726-2.045-1.247-.915-9.167-6.9-8.835-8.912.7-4.268,11.616,1.3,15.212,1.7" transform="translate(-8.608 -18.851)" fill-rule="evenodd"/>
      <path id="ink-layer-14" data-name="ink-layer" d="M9.82,285.588c2.087,5.227,4.437,23.183-6.555,13.487-3.354-2.96-3.861-6.655-2.7-10.719,1.671-5.888,4.1-4.72,9.26-2.768" transform="translate(0 -5.312)" fill-rule="evenodd"/>
      <path id="ink-layer-15" data-name="ink-layer" d="M562.567,223.217c-2.434-4.973,3.575-8.18,6.786-11.385,2.1-2.093,10.912-13.447,13.8-12.806,5.946,1.319-17.666,21.973-20.589,24.191" transform="translate(-25.946 -3.847)" fill-rule="evenodd"/>
      <path id="ink-layer-16" data-name="ink-layer" d="M98,564.091c5.735-.92,7.074,5.45,10.768,8.226,1.585,1.192,7.024,2.239,5.93,4.768-2.874,6.64-16.979-8.53-16.7-12.994" transform="translate(5.185 -10.374)" fill-rule="evenodd"/>
      <path id="ink-layer-17" data-name="ink-layer" d="M144,421.2c3.942-1.65,15.32,7.214,12.053,11.043-4.883,5.729-11.775-7.908-12.053-11.043" transform="translate(7.619 -7.658)" fill-rule="evenodd"/>
      <path id="ink-layer-18" data-name="ink-layer" d="M223.495,543.461c-2.873.285-15-3.526-10.507-8.63,3.155-3.585,11.538,5.385,10.507,8.63" transform="translate(-9.556 -9.55)" fill-rule="evenodd"/>
      <path id="ink-layer-19" data-name="ink-layer" d="M85.529,520.084c-2.853,1.14-13.142-1.206-9.907-5.674,3.082-4.254,9.911,2.143,9.907,5.674" transform="translate(3.968 -9.071)" fill-rule="evenodd"/>
      <path id="ink-layer-20" data-name="ink-layer" d="M165,538.039c3.336-.346,5.745,1.665,6.317,5.07-4.172.595-5.458-.4-6.317-5.07" transform="translate(8.731 -9.405)" fill-rule="evenodd"/>
      <path id="ink-layer-21" data-name="ink-layer" d="M577,68.491l4.212.02L577,68.491" transform="translate(-25.574 3.624)" fill-rule="evenodd"/>
      <path id="ink-layer-22" data-name="ink-layer" d="M556.317,347,550,347q3.16-.006,6.317-.008" transform="translate(-24.495 -5.894)" fill-rule="evenodd"/>
      <path id="ink-layer-23" data-name="ink-layer" d="M283.154,21q-.145,3.162-.293,6.317.142-3.165.293-6.317" transform="translate(-12.425 1.111)" fill-rule="evenodd"/>
      <path id="ink-layer-24" data-name="ink-layer" d="M902.954,361q1.008,3.514-2.954,1.164L902.954,361" transform="translate(-41.154 -6.203)" fill-rule="evenodd"/>
      <path id="ink-layer-25" data-name="ink-layer" d="M846,535.49l3.159.021L846,535.49" transform="translate(-44.011 -9.096)" fill-rule="evenodd"/>
      <path id="ink-layer-26" data-name="ink-layer" d="M656.265,374.529c-1.766,1.346-3.522,1.535-5.265-.072q2.633.038,5.265.072" transform="translate(-28.923 -6.4)" fill-rule="evenodd"/>
      <path id="ink-layer-27" data-name="ink-layer" d="M618.572,204q-.066,2.636-.137,5.265.066-2.639.137-5.265" transform="translate(-27.157 -3.566)" fill-rule="evenodd"/>
      <path id="ink-layer-28" data-name="ink-layer" d="M705.265,49.721,700,49.716a8.579,8.579,0,0,1,5.265.005" transform="translate(-31.1 2.609)" fill-rule="evenodd"/>
      <path id="ink-layer-29" data-name="ink-layer" d="M216.265,29.353l-5.265.31,5.265-.31" transform="translate(-9.374 1.553)" fill-rule="evenodd"/>
      <path id="ink-layer-30" data-name="ink-layer" d="M257.212,29.688,253,29.33l4.212.358" transform="translate(-11.214 1.552)" fill-rule="evenodd"/>
      <path id="ink-layer-31" data-name="ink-layer" d="M279.212,31.255a4.637,4.637,0,0,1-4.212.007l4.212-.007" transform="translate(-12.189 1.654)" fill-rule="evenodd"/>
      <path id="ink-layer-32" data-name="ink-layer" d="M160.265,33.993q-2.634.535-5.265,1.068,2.634-.531,5.265-1.068" transform="translate(8.201 1.799)" fill-rule="evenodd"/>
      <path id="ink-layer-33" data-name="ink-layer" d="M619.575,441q-.073,1.583-.143,3.159.074-1.584.143-3.159" transform="translate(-27.201 -7.621)" fill-rule="evenodd"/>
      <path id="ink-layer-34" data-name="ink-layer" d="M68.471,360c.021.7.041,1.407.06,2.106-.022-.705-.04-1.406-.06-2.106" transform="translate(3.623 -6.186)" fill-rule="evenodd"/>
      <path id="ink-layer-35" data-name="ink-layer" d="M909.265,356.457l-5.265.027a4.269,4.269,0,0,1,5.265-.027" transform="translate(-40.942 -6.07)" fill-rule="evenodd"/>
      <path id="ink-layer-36" data-name="ink-layer" d="M567.212,349.365,563,348.67l4.212.695" transform="translate(-24.953 -5.945)" fill-rule="evenodd"/>
      <path id="ink-layer-37" data-name="ink-layer" d="M201.265,582.039c-1.755-.34-3.509-.685-5.265-1.026Z" transform="translate(-8.708 -18.744)" fill-rule="evenodd"/>
      <path id="ink-layer-38" data-name="ink-layer" d="M537.551,295.159q-.049-1.581-.1-3.159.047,1.581.1,3.159" transform="translate(-23.598 -5.046)" fill-rule="evenodd"/>
      <path id="ink-layer-39" data-name="ink-layer" d="M221.159,29.7,218,29.316l3.159.389" transform="translate(-9.639 1.551)" fill-rule="evenodd"/>
      <path id="ink-layer-40" data-name="ink-layer" d="M385.159,5,382,4.045,385.159,5" transform="translate(-16.89 0.214)" fill-rule="evenodd"/>
      <path id="ink-layer-41" data-name="ink-layer" d="M504,679.439l2.106.128L504,679.439" transform="translate(-22.231 -13.536)" fill-rule="evenodd"/>
      <path id="ink-layer-42" data-name="ink-layer" d="M45,142.46l3.159.084L45,142.46" transform="translate(2.381 -2.421)" fill-rule="evenodd"/>
      <path id="ink-layer-43" data-name="ink-layer" d="M716.265,50.695,711,50.324l5.265.371" transform="translate(-31.589 2.663)" fill-rule="evenodd"/>
      <path id="ink-layer-44" data-name="ink-layer" d="M189.37,45.994l-7.37.013,7.37-.013" transform="translate(-8.125 2.434)" fill-rule="evenodd"/>
      <path id="ink-layer-45" data-name="ink-layer" d="M661.452,252q.047,2.636.1,5.265-.047-2.638-.1-5.265" transform="translate(-29.043 -4.405)" fill-rule="evenodd"/>
      <path id="ink-layer-46" data-name="ink-layer" d="M539.212,610.035Q537.1,610,535,609.968c1.412.019,2.811.044,4.212.067" transform="translate(-23.712 -17.212)" fill-rule="evenodd"/>
      <path id="ink-layer-47" data-name="ink-layer" d="M681,80.229l6.318-.7c-2.022,1.788-4.2.6-6.318.7" transform="translate(-30.329 4.208)" fill-rule="evenodd"/>
      <path id="ink-layer-48" data-name="ink-layer" d="M528.159,610.561,525,610.445l3.159.116" transform="translate(-23.213 -17.187)" fill-rule="evenodd"/>
      <path id="ink-layer-49" data-name="ink-layer" d="M493.424,628q.079,2.637.16,5.265c-.052-1.762-.106-3.513-.16-5.265" transform="translate(-21.668 -16.258)" fill-rule="evenodd"/>
      <path id="ink-layer-50" data-name="ink-layer" d="M646,141.618l4.212-.391c-1.281.988-2.786.41-4.212.391" transform="translate(-28.632 -2.406)" fill-rule="evenodd"/>
      <path id="ink-layer-51" data-name="ink-layer" d="M209,407.633q2.105.389,4.212.773-2.105-.385-4.212-.773" transform="translate(-9.263 -6.953)" fill-rule="evenodd"/>
      <path id="ink-layer-52" data-name="ink-layer" d="M417,144.557c1.752-1.493,3.507-1.331,5.265-.017q-2.633.006-5.265.017" transform="translate(-18.527 -2.451)" fill-rule="evenodd"/>
      <path id="ink-layer-53" data-name="ink-layer" d="M354.427,195.106c.051-.7.1-1.4.154-2.106-.048.7-.1,1.4-.154,2.106" transform="translate(-15.564 -3.316)" fill-rule="evenodd"/>
      <path id="ink-layer-54" data-name="ink-layer" d="M645.479,176q.022,2.11.044,4.212c-.014-1.41-.028-2.81-.044-4.212" transform="translate(-28.338 -3.059)" fill-rule="evenodd"/>
      <path id="ink-layer-55" data-name="ink-layer" d="M204.352,385.033c2.31.783,6.957,3.149,9.649,2.835,2.155-.252,3.932-2.871,6.01-2.868,5.6.007,4.558,6.476,1.854,9.949-7.312,9.394-23.653-.792-17.513-9.916" transform="translate(-9.349 -7.042)" fill-rule="evenodd"/>
      <path id="ink-layer-56" data-name="ink-layer" d="M226.5,353c7.632,1.97,3.83,18.757-2.585,19.911-7.554,1.36-8.87-12.29-7.378-17.224,3.887,2.31,1.48,10.55,6.38,8.273,3.116-1.45,2.642-8.153,3.583-10.96" transform="translate(-9.806 -6.676)" fill-rule="evenodd"/>
    </g>
  </g>
</svg>
