<svg xmlns="http://www.w3.org/2000/svg" width="1925.685" height="8610.432" viewBox="0 0 1925.685 8610.432">
  <g id="Group_1" data-name="Group 1" transform="translate(2558 -1448.568)">
    <g id="Group_2" data-name="Group 2">
      <path id="curve3" d="M0,487.118a1745.747,1745.747,0,0,1,853.887-10.37l169.922,40.58c32.059,7.532,64.228,14.392,96.58,20.225q48.653,8.771,97.674,14.78,48.926,6,98.089,9.221,49.1,3.22,98.309,3.663,49.178.443,98.334-1.893t98.163-7.449q49.04-5.117,97.8-13,49.318-7.978,98.231-18.757a695.2,695.2,0,0,0,95.068-28.356c7.846-2.963,15.752-5.75,23.63-8.617l-.771,2973.373H1.551Z" transform="translate(-2558.003 1019.781)" fill="#ececec"/>
      <rect id="Rectangle_45" data-name="Rectangle 45" width="1920" height="7643" transform="translate(-2558 2416)" fill="#ececec"/>
    </g>
  </g>
</svg>
