<svg xmlns="http://www.w3.org/2000/svg" width="1920.681" height="2809.02" viewBox="0 0 1920.681 2809.02">
  <path id="curve3" d="M5.358,450.719c280.293-29.076,566.821-29.511,848.532-3.113l169.922,15.923q48.088,4.433,96.58,7.936,48.653,3.442,97.674,5.8,48.926,2.353,98.089,3.618,49.1,1.263,98.309,1.437,49.178.174,98.334-.743t98.163-2.923q49.04-2.008,97.8-5.1,49.318-3.13,98.231-7.36c32.221-2.8,63.979-6.52,95.068-11.126,7.846-1.163,23.981-4.253,23.981-4.253l-1.121,1167.546L5.979,1617.565Z" transform="translate(-5.358 -428.339)" fill="#4c4ca7"/>
  <rect id="Rectangle_34" data-name="Rectangle 34" width="1920" height="2712" transform="translate(0.645 97.02)" fill="#4c4ca7"/>
</svg>
