<svg xmlns="http://www.w3.org/2000/svg" width="1925.685" height="1911.029" viewBox="0 0 1925.685 1911.029">
  <path id="curve3" 
  d="M0,465.556c280.293-46.71,572.176-48.944,853.887-6.537L1023.813,484.6c32.059,4.748,64.228,9.072,96.58,12.748q48.653,5.529,97.674,9.317,48.926,3.78,98.089,5.812,49.1,2.03,98.309,2.309,49.178.279,98.334-1.194t98.163-4.7q49.04-3.225,97.8-8.2,49.318-5.029,98.231-11.823c32.221-4.5,63.979-10.475,95.068-17.874,7.846-1.868,15.752-3.625,23.63-5.431l-.771,1874.246H1.551Z" transform="translate(-0.003 -428.788)" fill="#fff"/>
</svg>
