<svg fill="none" height="250" viewBox="0 0 210 250" width="210" xmlns="http://www.w3.org/2000/svg"><path d="m81.0439 249.286c24.8401 0 44.9771-2.027 44.9771-4.528 0-2.5-20.137-4.528-44.9771-4.528-24.8404 0-44.9775 2.028-44.9775 4.528 0 2.501 20.1371 4.528 44.9775 4.528z" fill="#45413c" opacity=".15"/><path d="m147.455 14.4502c0-6.94262-5.735-12.37598-12.678-12.37598h-107.1578c-6.9426 0-12.6778 5.73521-12.6778 12.37598v197.4118c0 6.943 5.7352 12.376 12.6778 12.376h107.1578c6.943 0 12.678-5.735 12.678-12.376zm-11.772 164.2078c0 1.812-1.208 3.019-3.019 3.019h-102.9318c-1.8111 0-3.0185-1.207-3.0185-3.019v-138.8521c0-1.8111 1.2074-3.0186 3.0185-3.0186h102.9318c1.811 0 3.019 1.2075 3.019 3.0186z" fill="#fff"/><path d="m134.777 224.538h-107.1578c-6.9426 0-12.6778-5.735-12.6778-12.376v-9.357c0 6.942 5.7352 12.376 12.6778 12.376h107.1578c6.943 0 12.678-5.736 12.678-12.376v9.055c0 6.943-5.735 12.678-12.678 12.678z" fill="#e8f4fa"/><path d="m147.455 14.4502c0-6.94262-5.735-12.37598-12.678-12.37598h-107.1578c-6.9426 0-12.6778 5.73521-12.6778 12.37598v197.4118c0 6.943 5.7352 12.376 12.6778 12.376h107.1578c6.943 0 12.678-5.735 12.678-12.376zm-11.772 164.2078c0 1.812-1.208 3.019-3.019 3.019h-102.9318c-1.8111 0-3.0185-1.207-3.0185-3.019v-138.8521c0-1.8111 1.2074-3.0185 3.0185-3.0185h102.9318c1.811 0 3.019 1.2074 3.019 3.0185zm0 0c0 1.812-1.208 3.019-3.019 3.019h-102.9318c-1.8111 0-3.0185-1.207-3.0185-3.019v-138.8521c0-1.8111 1.2074-3.0185 3.0185-3.0185h102.9318c1.811 0 3.019 1.2074 3.019 3.0185z" stroke="#211d3d" stroke-linecap="round" stroke-linejoin="round" stroke-miterlimit="10" stroke-width="2.5"/><path d="m60.8193 14.4609c-1.8111 0-3.0185 1.2075-3.0185 3.0186s1.2074 3.0185 3.0185 3.0185 3.0185-1.2074 3.0185-3.0185-1.5092-3.0186-3.0185-3.0186z" fill="#211d3d"/><path d="m71.6875 17.4727h28.3745" stroke="#211d3d" stroke-linecap="round" stroke-linejoin="round" stroke-miterlimit="10" stroke-width="2.5"/><path d="m81.0453 214.575c5.8349 0 10.5649-4.73 10.5649-10.565s-4.73-10.565-10.5649-10.565c-5.8348 0-10.5648 4.73-10.5648 10.565s4.73 10.565 10.5648 10.565z" style="fill:#fff;stroke:#211d3d;stroke-width:2.5;stroke-miterlimit:10;stroke-linecap:round;stroke-linejoin:round"/><path d="m135.68 178.66c0 1.811-1.207 3.019-3.019 3.019h-102.9315c-1.8111 0-3.0186-1.208-3.0186-3.019v-138.8524c0-1.8111 1.2075-3.0185 3.0186-3.0185h102.9315c1.812 0 3.019 1.2074 3.019 3.0185z" fill="#4acfff"/><path d="m114.248 36.7891h-84.5185c-1.8111 0-3.0186 1.2074-3.0186 3.0185v84.5194z" fill="#80ddff"/><g stroke-linecap="round" stroke-linejoin="round" stroke-miterlimit="10" stroke-width="2.5"><g stroke="#211d3d"><path d="m135.68 178.66c0 1.811-1.207 3.019-3.019 3.019h-102.9315c-1.8111 0-3.0186-1.208-3.0186-3.019v-138.8524c0-1.8111 1.2075-3.0185 3.0186-3.0185h102.9315c1.812 0 3.019 1.2074 3.019 3.0185z"/><path d="m117.569 160.244h-88.443c-15.3945 0-27.77053-12.376-27.77053-27.77 0-15.395 12.37603-27.771 27.77053-27.771h88.443c15.395 0 27.771 12.376 27.771 27.771 0 15.394-12.376 27.77-27.771 27.77z" fill="#fff"/><path d="m38.4883 117.984h52.2206"/><path d="m25.1992 131.566h66.7096"/><path d="m25.1992 144.859h66.7096"/><path d="m118.176 82.0663h-74.2561c-3.3204 0-6.0371-2.7167-6.0371-6.037 0-3.3204 2.7167-6.0371 6.0371-6.0371h74.2561c3.32 0 6.037 2.7167 6.037 6.0371 0 3.3203-2.415 6.037-6.037 6.037z" fill="#daedf7"/><path d="m118.176 60.0312h-74.2561c-3.3204 0-6.0371-2.7167-6.0371-6.0371s2.7167-6.0371 6.0371-6.0371h74.2561c3.32 0 6.037 2.7167 6.037 6.0371s-2.415 6.0371-6.037 6.0371z" fill="#daedf7"/></g><path d="m189.417 118.301c-.603-.302-.905-1.208-.603-2.113.302-.604.905-1.208 1.811-1.208l16.602 1.208c.603 0 .905.302 1.207.604.302.301.302.905.302 1.509l-2.415 7.244c-.302.604-.603.906-.905 1.208-.604.302-.906 0-1.51 0z" fill="#ffe500" stroke="#b58b00"/><path d="m169.492 85.092c-.302.6038-1.207.9056-2.113.6038-.603-.3019-1.207-.9056-1.207-1.8112l1.207-16.6019c0-.6037.302-.9056.604-1.2074.302-.3019.906-.3019 1.509-.3019l7.245 2.4149c.603.3018.905.6037 1.207.9055.302.3019 0 .9056 0 1.5093z" fill="#ffe500" stroke="#b58b00"/><path d="m181.267 101.097c-.905.302-1.509-.302-1.811-.906-.302-.6036-.302-1.5091.302-2.1129l17.507-15.0926c.302-.3019.906-.6037 1.51-.3019.603.3019.905.3019 1.207.9056l4.83 9.6593c.302.6037.302.9056 0 1.5093s-.604.9055-1.208.9055z" fill="#ffe500" stroke="#b58b00"/><path d="m178.54 140.326c0-3.321-2.415-6.037-5.433-6.641v-4.528c0-18.413-14.791-33.2039-33.204-33.2039s-33.204 14.7909-33.204 33.2039v4.528c-3.019.604-5.433 3.32-5.433 6.641 0 3.622 2.716 6.338 6.339 6.942 3.018 15.093 16.601 26.563 32.6 26.563 15.998 0 29.581-11.47 32.6-26.563 3.018-.604 5.735-3.32 5.735-6.942z" fill="#ffda8f" stroke="#45413c"/></g><path d="m121.792 148.776c2.334 0 4.226-1.892 4.226-4.226s-1.892-4.226-4.226-4.226-4.226 1.892-4.226 4.226 1.892 4.226 4.226 4.226z" fill="#ffbe3d"/><path d="m157.71 148.776c2.334 0 4.226-1.892 4.226-4.226s-1.892-4.226-4.226-4.226-4.226 1.892-4.226 4.226 1.892 4.226 4.226 4.226z" fill="#ffbe3d"/><path d="m131.445 154.52c5.132 3.32 11.471 3.32 16.602 0" stroke="#45413c" stroke-linecap="round" stroke-linejoin="round" stroke-miterlimit="10" stroke-width="2.5"/><path d="m157.71 148.776c2.415 0 4.226-1.811 4.226-4.226s-1.811-4.226-4.226-4.226-4.226 1.811-4.226 4.226" fill="#ffbe3d"/><path d="m178.54 140.326c0-3.321-2.415-6.037-5.433-6.641v-4.528c0-18.413-14.791-33.2039-33.204-33.2039s-33.204 14.7909-33.204 33.2039v4.528c-3.019.604-5.433 3.32-5.433 6.641 0 3.622 2.716 6.338 6.339 6.942 3.018 15.093 16.601 26.563 32.6 26.563 15.998 0 29.581-11.47 32.6-26.563 3.018-.604 5.735-3.32 5.735-6.942z" style="fill:#d18660;stroke:#211d3d;stroke-width:2.5;stroke-miterlimit:10;stroke-linecap:round;stroke-linejoin:round"/><path d="m121.792 148.776c2.334 0 4.226-1.892 4.226-4.226s-1.892-4.226-4.226-4.226-4.226 1.892-4.226 4.226 1.892 4.226 4.226 4.226z" fill="#bd704a"/><path d="m157.71 148.776c2.334 0 4.226-1.892 4.226-4.226s-1.892-4.226-4.226-4.226-4.226 1.892-4.226 4.226 1.892 4.226 4.226 4.226z" fill="#bd704a"/><path d="m131.445 154.52c5.132 3.32 11.471 3.32 16.602 0" stroke="#211d3d" stroke-linecap="round" stroke-linejoin="round" stroke-miterlimit="10" stroke-width="2.5"/><path d="m127.23 137.604c2.334 0 4.226-1.892 4.226-4.226s-1.892-4.226-4.226-4.226-4.226 1.892-4.226 4.226 1.892 4.226 4.226 4.226z" fill="#211d3d"/><path d="m152.285 137.604c2.333 0 4.225-1.892 4.225-4.226s-1.892-4.226-4.225-4.226c-2.334 0-4.226 1.892-4.226 4.226s1.892 4.226 4.226 4.226z" fill="#211d3d"/><path d="m167.374 123.731c3.019 0 5.434 2.415 5.434 5.433v4.528c3.018.604 5.433 3.321 5.433 6.641 0 3.622-2.717 6.339-6.339 6.943-1.509 7.244-5.433 13.583-10.867 18.413 4.528.301 15.697-.302 28.676-7.849 2.717-1.509 3.623-5.131 1.811-7.848-7.546-11.47-12.074-23.846-14.79-34.713-4.226-16.6018-20.828-30.1852-37.732-30.1852s-33.204 13.2815-37.732 30.1852c-2.7164 10.867-7.2442 23.243-14.7905 34.713-1.8111 2.717-.6037 6.339 1.8111 7.848 12.9794 7.547 24.1484 8.15 28.6764 7.849-5.434-4.83-9.358-11.169-10.867-18.413-3.622-.302-6.339-3.321-6.339-6.943 0-3.32 2.415-6.037 5.433-6.641v-4.528c0-3.018 2.415-5.433 5.434-5.433z" fill="#724f3d"/><path d="m139.607 95.9537c16.602 0 31.091 7.8483 37.731 19.0163-4.226-16.6014-20.828-30.1848-37.731-30.1848-16.904 0-33.204 13.2815-37.732 30.1848 6.943-11.168 21.13-19.0163 37.732-19.0163z" fill="#a86c4d"/><path d="m167.374 123.731c3.019 0 5.434 2.415 5.434 5.433v4.528c3.018.604 5.433 3.321 5.433 6.641 0 3.622-2.717 6.339-6.339 6.943-1.509 7.244-5.433 13.583-10.867 18.413 4.528.301 15.697-.302 28.676-7.849 2.717-1.509 3.623-5.131 1.811-7.848-7.546-11.47-12.074-23.846-14.79-34.713-4.226-16.6018-20.828-30.1852-37.732-30.1852s-33.204 13.2815-37.732 30.1852c-2.7164 10.867-7.2442 23.243-14.7905 34.713-1.8111 2.717-.6037 6.339 1.8111 7.848 12.9794 7.547 24.1484 8.15 28.6764 7.849-5.434-4.83-9.358-11.169-10.867-18.413-3.622-.302-6.339-3.321-6.339-6.943 0-3.32 2.415-6.037 5.433-6.641v-4.528c0-3.018 2.415-5.433 5.434-5.433z" stroke="#211d3d" stroke-linecap="round" stroke-linejoin="round" stroke-miterlimit="10" stroke-width="2.5"/></svg>